G04*
G04 #@! TF.GenerationSoftware,Altium Limited,Altium Designer,26.1.1 (7)*
G04*
G04 Layer_Physical_Order=2*
G04 Layer_Color=36540*
%FSLAX44Y44*%
%MOMM*%
G71*
G04*
G04 #@! TF.SameCoordinates,CD2F593A-4D2A-49AD-B025-98148D784466*
G04*
G04*
G04 #@! TF.FilePolarity,Positive*
G04*
G01*
G75*
%ADD103C,0.3250*%
%ADD104C,0.6000*%
%ADD105C,0.4500*%
G36*
X209461Y-209461D02*
X41111D01*
X40690Y-208445D01*
X41527Y-207608D01*
X41656Y-207295D01*
X41910Y-207400D01*
Y-201930D01*
Y-196460D01*
X40042Y-197233D01*
X38483Y-198792D01*
X38354Y-199105D01*
X38100Y-199000D01*
Y-204470D01*
X36830D01*
Y-205740D01*
X31360D01*
X32133Y-207608D01*
X32970Y-208445D01*
X32549Y-209461D01*
X-93619D01*
X-94184Y-208445D01*
X-93590Y-207010D01*
X-104530D01*
X-103936Y-208445D01*
X-104501Y-209461D01*
X-209461D01*
Y-175297D01*
X-208445Y-175095D01*
X-208358Y-175304D01*
X-206800Y-176863D01*
X-204932Y-177636D01*
Y-172166D01*
Y-166696D01*
X-206800Y-167469D01*
X-208358Y-169028D01*
X-208445Y-169237D01*
X-209461Y-169035D01*
Y56679D01*
X-208445Y57100D01*
X-207608Y56263D01*
X-205740Y55490D01*
Y60960D01*
X-204470D01*
Y62230D01*
X-199000D01*
X-199773Y64098D01*
X-199810Y64135D01*
X-199773Y64172D01*
X-199000Y66040D01*
X-204470D01*
Y68580D01*
X-199000D01*
X-199773Y70448D01*
X-200445Y71120D01*
X-199773Y71792D01*
X-199000Y73660D01*
X-204470D01*
Y74930D01*
X-205740D01*
Y80400D01*
X-207608Y79627D01*
X-208445Y78790D01*
X-209461Y79211D01*
Y209461D01*
X209461D01*
Y-209461D01*
D02*
G37*
%LPC*%
G36*
X86360Y161680D02*
X84492Y160907D01*
X83820Y160235D01*
X83148Y160907D01*
X81280Y161680D01*
Y156210D01*
Y150740D01*
X83148Y151513D01*
X83820Y152185D01*
X84492Y151513D01*
X86360Y150740D01*
Y156210D01*
Y161680D01*
D02*
G37*
G36*
X78740D02*
X76872Y160907D01*
X75313Y159348D01*
X74540Y157480D01*
X78740D01*
Y161680D01*
D02*
G37*
G36*
X96520Y155330D02*
Y151130D01*
X100720D01*
X99947Y152998D01*
X98388Y154557D01*
X96520Y155330D01*
D02*
G37*
G36*
X78740Y154940D02*
X74540D01*
X75313Y153072D01*
X76872Y151513D01*
X78740Y150740D01*
Y154940D01*
D02*
G37*
G36*
X88900Y161680D02*
Y156210D01*
Y150551D01*
X89710Y149975D01*
Y148758D01*
X90553Y146722D01*
X91225Y146050D01*
X90553Y145378D01*
X89780Y143510D01*
X100720D01*
X99947Y145378D01*
X99275Y146050D01*
X99947Y146722D01*
X100720Y148590D01*
X95250D01*
Y149860D01*
X93980D01*
Y155519D01*
X93170Y156095D01*
Y157312D01*
X92327Y159348D01*
X90768Y160907D01*
X88900Y161680D01*
D02*
G37*
G36*
X-193040Y145170D02*
Y140970D01*
X-188840D01*
X-189613Y142838D01*
X-191172Y144397D01*
X-193040Y145170D01*
D02*
G37*
G36*
X-195580D02*
X-197448Y144397D01*
X-199007Y142838D01*
X-199780Y140970D01*
X-195580D01*
Y145170D01*
D02*
G37*
G36*
X100720Y140970D02*
X89780D01*
X90553Y139102D01*
X91225Y138430D01*
X90553Y137758D01*
X89780Y135890D01*
X100720D01*
X99947Y137758D01*
X99275Y138430D01*
X99947Y139102D01*
X100720Y140970D01*
D02*
G37*
G36*
X151527Y165500D02*
X148473D01*
X145479Y164904D01*
X142658Y163736D01*
X140119Y162040D01*
X137960Y159881D01*
X136264Y157342D01*
X135096Y154521D01*
X134500Y151527D01*
Y148473D01*
X135096Y145479D01*
X136264Y142658D01*
X137960Y140119D01*
X140119Y137960D01*
X142658Y136264D01*
X145479Y135096D01*
X148473Y134500D01*
X151527D01*
X154521Y135096D01*
X157342Y136264D01*
X159881Y137960D01*
X162040Y140119D01*
X163736Y142658D01*
X164904Y145479D01*
X165500Y148473D01*
Y151527D01*
X164904Y154521D01*
X163736Y157342D01*
X162040Y159881D01*
X159881Y162040D01*
X157342Y163736D01*
X154521Y164904D01*
X151527Y165500D01*
D02*
G37*
G36*
X-148473Y165500D02*
X-151527D01*
X-154521Y164904D01*
X-157342Y163736D01*
X-159881Y162040D01*
X-162040Y159881D01*
X-163736Y157342D01*
X-164904Y154521D01*
X-165500Y151527D01*
Y148473D01*
X-164904Y145479D01*
X-163736Y142658D01*
X-162040Y140119D01*
X-159881Y137960D01*
X-157342Y136264D01*
X-154521Y135096D01*
X-151527Y134500D01*
X-148473D01*
X-145479Y135096D01*
X-142658Y136264D01*
X-140119Y137960D01*
X-137960Y140119D01*
X-136264Y142658D01*
X-135096Y145479D01*
X-134500Y148473D01*
Y151527D01*
X-135096Y154521D01*
X-136264Y157342D01*
X-137960Y159881D01*
X-140119Y162040D01*
X-142658Y163736D01*
X-145479Y164904D01*
X-148473Y165500D01*
D02*
G37*
G36*
X-188840Y138430D02*
X-193040D01*
Y134230D01*
X-191172Y135003D01*
X-189613Y136562D01*
X-188840Y138430D01*
D02*
G37*
G36*
X-195580D02*
X-199780D01*
X-199007Y136562D01*
X-197448Y135003D01*
X-195580Y134230D01*
Y138430D01*
D02*
G37*
G36*
X100720Y133350D02*
X89780D01*
X90553Y131482D01*
X91225Y130810D01*
X90553Y130138D01*
X89780Y128270D01*
X100720D01*
X99947Y130138D01*
X99275Y130810D01*
X99947Y131482D01*
X100720Y133350D01*
D02*
G37*
G36*
Y125730D02*
X89780D01*
X90553Y123862D01*
X91225Y123190D01*
X90553Y122518D01*
X89780Y120650D01*
X100720D01*
X99947Y122518D01*
X99275Y123190D01*
X99947Y123862D01*
X100720Y125730D01*
D02*
G37*
G36*
X93980Y118110D02*
X89780D01*
X89894Y117835D01*
X89175Y117116D01*
X88900Y117230D01*
Y113030D01*
X93100D01*
X92986Y113305D01*
X93705Y114024D01*
X93980Y113910D01*
Y118110D01*
D02*
G37*
G36*
X86360Y117230D02*
X84492Y116457D01*
X83820Y115785D01*
X83148Y116457D01*
X81280Y117230D01*
Y111760D01*
Y106290D01*
X83148Y107063D01*
X83820Y107735D01*
X84492Y107063D01*
X86360Y106290D01*
Y111760D01*
Y117230D01*
D02*
G37*
G36*
X100720Y118110D02*
X96520D01*
Y113910D01*
X98388Y114683D01*
X99947Y116242D01*
X100720Y118110D01*
D02*
G37*
G36*
X78740Y117230D02*
X76872Y116457D01*
X75313Y114898D01*
X74540Y113030D01*
X78740D01*
Y117230D01*
D02*
G37*
G36*
X93100Y110490D02*
X88900D01*
Y106290D01*
X90768Y107063D01*
X92327Y108622D01*
X93100Y110490D01*
D02*
G37*
G36*
X78740D02*
X74540D01*
X75313Y108622D01*
X76872Y107063D01*
X78740Y106290D01*
Y110490D01*
D02*
G37*
G36*
X155789Y105870D02*
X154091D01*
X152521Y105220D01*
X151765Y104464D01*
X151009Y105220D01*
X149439Y105870D01*
X147741D01*
X146171Y105220D01*
X145415Y104464D01*
X144659Y105220D01*
X143089Y105870D01*
X141391D01*
X139821Y105220D01*
X139065Y104464D01*
X138309Y105220D01*
X136739Y105870D01*
X135041D01*
X133471Y105220D01*
X132715Y104464D01*
X131959Y105220D01*
X130389Y105870D01*
X128691D01*
X127121Y105220D01*
X126365Y104464D01*
X125609Y105220D01*
X124039Y105870D01*
X122341D01*
X120771Y105220D01*
X120015Y104464D01*
X119259Y105220D01*
X117689Y105870D01*
X115991D01*
X114421Y105220D01*
X113220Y104019D01*
X112570Y102449D01*
Y100751D01*
X113220Y99181D01*
X114421Y97980D01*
X115991Y97330D01*
X117689D01*
X119259Y97980D01*
X120015Y98736D01*
X120771Y97980D01*
X122341Y97330D01*
X124039D01*
X125609Y97980D01*
X126365Y98736D01*
X127121Y97980D01*
X128691Y97330D01*
X130389D01*
X131959Y97980D01*
X132715Y98736D01*
X133471Y97980D01*
X135041Y97330D01*
X136739D01*
X138309Y97980D01*
X139065Y98736D01*
X139821Y97980D01*
X141391Y97330D01*
X143089D01*
X144659Y97980D01*
X145415Y98736D01*
X146171Y97980D01*
X147741Y97330D01*
X149439D01*
X151009Y97980D01*
X151765Y98736D01*
X152521Y97980D01*
X154091Y97330D01*
X155789D01*
X157359Y97980D01*
X158560Y99181D01*
X159210Y100751D01*
Y102449D01*
X158560Y104019D01*
X157359Y105220D01*
X155789Y105870D01*
D02*
G37*
G36*
X-193461Y99520D02*
X-195159D01*
X-196729Y98870D01*
X-197930Y97669D01*
X-198580Y96099D01*
Y94401D01*
X-197930Y92831D01*
X-196729Y91630D01*
X-195159Y90980D01*
X-193461D01*
X-191891Y91630D01*
X-190690Y92831D01*
X-190040Y94401D01*
Y96099D01*
X-190690Y97669D01*
X-191891Y98870D01*
X-193461Y99520D01*
D02*
G37*
G36*
X-76749Y89508D02*
X-78617Y88734D01*
X-80175Y87176D01*
X-80949Y85308D01*
X-76749D01*
Y89508D01*
D02*
G37*
G36*
X-66040Y89290D02*
Y85090D01*
X-61840D01*
X-62613Y86958D01*
X-64172Y88517D01*
X-66040Y89290D01*
D02*
G37*
G36*
X155789Y85550D02*
X154091D01*
X152521Y84900D01*
X151765Y84144D01*
X151009Y84900D01*
X149439Y85550D01*
X147741D01*
X146171Y84900D01*
X145415Y84144D01*
X144659Y84900D01*
X143089Y85550D01*
X141391D01*
X139821Y84900D01*
X139065Y84144D01*
X138309Y84900D01*
X136739Y85550D01*
X135041D01*
X133471Y84900D01*
X132715Y84144D01*
X131959Y84900D01*
X130389Y85550D01*
X128691D01*
X127121Y84900D01*
X126365Y84144D01*
X125609Y84900D01*
X124039Y85550D01*
X122341D01*
X120771Y84900D01*
X120015Y84144D01*
X119259Y84900D01*
X117689Y85550D01*
X115991D01*
X114421Y84900D01*
X113220Y83699D01*
X112570Y82129D01*
Y80431D01*
X113220Y78861D01*
X114421Y77660D01*
X115991Y77010D01*
X117689D01*
X119259Y77660D01*
X120015Y78416D01*
X120771Y77660D01*
X122341Y77010D01*
X124039D01*
X125609Y77660D01*
X126365Y78416D01*
X127121Y77660D01*
X128691Y77010D01*
X130389D01*
X131959Y77660D01*
X132715Y78416D01*
X133471Y77660D01*
X135041Y77010D01*
X136739D01*
X138309Y77660D01*
X139065Y78416D01*
X139821Y77660D01*
X141391Y77010D01*
X143089D01*
X144659Y77660D01*
X145415Y78416D01*
X146171Y77660D01*
X147741Y77010D01*
X149439D01*
X151009Y77660D01*
X151765Y78416D01*
X152521Y77660D01*
X154091Y77010D01*
X155789D01*
X157359Y77660D01*
X158560Y78861D01*
X159210Y80431D01*
Y82129D01*
X158560Y83699D01*
X157359Y84900D01*
X155789Y85550D01*
D02*
G37*
G36*
X-76749Y82768D02*
X-80949D01*
X-80175Y80899D01*
X-78617Y79341D01*
X-76749Y78567D01*
Y82768D01*
D02*
G37*
G36*
X-61840Y82550D02*
X-66040D01*
Y78350D01*
X-64172Y79123D01*
X-62613Y80682D01*
X-61840Y82550D01*
D02*
G37*
G36*
X-74209Y89508D02*
Y84038D01*
Y78567D01*
X-72341Y79341D01*
X-71503Y80178D01*
X-70448Y79123D01*
X-68580Y78350D01*
Y83820D01*
Y89290D01*
X-70448Y88517D01*
X-71286Y87679D01*
X-72341Y88734D01*
X-74209Y89508D01*
D02*
G37*
G36*
X-203200Y80400D02*
Y76200D01*
X-199000D01*
X-199773Y78068D01*
X-201332Y79627D01*
X-203200Y80400D01*
D02*
G37*
G36*
X155789Y65230D02*
X154091D01*
X152521Y64580D01*
X151765Y63824D01*
X151009Y64580D01*
X149439Y65230D01*
X147741D01*
X146171Y64580D01*
X145415Y63824D01*
X144659Y64580D01*
X143089Y65230D01*
X141391D01*
X139821Y64580D01*
X139065Y63824D01*
X138309Y64580D01*
X136739Y65230D01*
X135041D01*
X133471Y64580D01*
X132715Y63824D01*
X131959Y64580D01*
X130389Y65230D01*
X128691D01*
X127121Y64580D01*
X126365Y63824D01*
X125609Y64580D01*
X124039Y65230D01*
X122341D01*
X120771Y64580D01*
X120015Y63824D01*
X119259Y64580D01*
X117689Y65230D01*
X115991D01*
X114421Y64580D01*
X113220Y63379D01*
X112570Y61809D01*
Y60111D01*
X113220Y58541D01*
X114421Y57340D01*
X115991Y56690D01*
X117689D01*
X119259Y57340D01*
X120015Y58096D01*
X120771Y57340D01*
X122341Y56690D01*
X124039D01*
X125609Y57340D01*
X126365Y58096D01*
X127121Y57340D01*
X128691Y56690D01*
X130389D01*
X131959Y57340D01*
X132715Y58096D01*
X133471Y57340D01*
X135041Y56690D01*
X136739D01*
X138309Y57340D01*
X139065Y58096D01*
X139821Y57340D01*
X141391Y56690D01*
X143089D01*
X144659Y57340D01*
X145415Y58096D01*
X146171Y57340D01*
X147741Y56690D01*
X149439D01*
X151009Y57340D01*
X151765Y58096D01*
X152521Y57340D01*
X154091Y56690D01*
X155789D01*
X157359Y57340D01*
X158560Y58541D01*
X159210Y60111D01*
Y61809D01*
X158560Y63379D01*
X157359Y64580D01*
X155789Y65230D01*
D02*
G37*
G36*
X-166370Y60080D02*
Y55880D01*
X-162170D01*
X-162943Y57748D01*
X-164502Y59307D01*
X-166370Y60080D01*
D02*
G37*
G36*
X-168910D02*
X-170778Y59307D01*
X-172337Y57748D01*
X-173110Y55880D01*
X-168910D01*
Y60080D01*
D02*
G37*
G36*
X-199000Y59690D02*
X-203200D01*
Y55490D01*
X-201332Y56263D01*
X-199773Y57822D01*
X-199000Y59690D01*
D02*
G37*
G36*
X-5080Y58810D02*
Y54610D01*
X-880D01*
X-1653Y56478D01*
X-3212Y58037D01*
X-5080Y58810D01*
D02*
G37*
G36*
X-7620D02*
X-9488Y58037D01*
X-11047Y56478D01*
X-11820Y54610D01*
X-7620D01*
Y58810D01*
D02*
G37*
G36*
X-162170Y53340D02*
X-166370D01*
Y49140D01*
X-164502Y49913D01*
X-162943Y51472D01*
X-162170Y53340D01*
D02*
G37*
G36*
X-168910D02*
X-173110D01*
X-172337Y51472D01*
X-170778Y49913D01*
X-168910Y49140D01*
Y53340D01*
D02*
G37*
G36*
X-7620Y52070D02*
X-11820D01*
X-11047Y50202D01*
X-9488Y48643D01*
X-7620Y47870D01*
Y52070D01*
D02*
G37*
G36*
X2540Y49920D02*
Y45720D01*
X6740D01*
X5967Y47588D01*
X4408Y49147D01*
X2540Y49920D01*
D02*
G37*
G36*
X-880Y52070D02*
X-5080D01*
Y47870D01*
X-4170Y48247D01*
X-3808Y47926D01*
X-3493Y47427D01*
X-4200Y45720D01*
X0D01*
Y49920D01*
X-910Y49543D01*
X-1272Y49864D01*
X-1587Y50363D01*
X-880Y52070D01*
D02*
G37*
G36*
X155789Y44910D02*
X154091D01*
X152521Y44260D01*
X151765Y43504D01*
X151009Y44260D01*
X149439Y44910D01*
X147741D01*
X146171Y44260D01*
X145415Y43504D01*
X144659Y44260D01*
X143089Y44910D01*
X141391D01*
X139821Y44260D01*
X139065Y43504D01*
X138309Y44260D01*
X136739Y44910D01*
X135041D01*
X133471Y44260D01*
X132715Y43504D01*
X131959Y44260D01*
X130389Y44910D01*
X128691D01*
X127121Y44260D01*
X126365Y43504D01*
X125609Y44260D01*
X124039Y44910D01*
X122341D01*
X120771Y44260D01*
X120015Y43504D01*
X119259Y44260D01*
X117689Y44910D01*
X115991D01*
X114421Y44260D01*
X113220Y43059D01*
X112570Y41489D01*
Y39791D01*
X113220Y38221D01*
X114421Y37020D01*
X115991Y36370D01*
X117689D01*
X119259Y37020D01*
X120015Y37776D01*
X120771Y37020D01*
X122341Y36370D01*
X124039D01*
X125609Y37020D01*
X126365Y37776D01*
X127121Y37020D01*
X128691Y36370D01*
X130389D01*
X131959Y37020D01*
X132715Y37776D01*
X133471Y37020D01*
X135041Y36370D01*
X136739D01*
X138309Y37020D01*
X139065Y37776D01*
X139821Y37020D01*
X141391Y36370D01*
X143089D01*
X144659Y37020D01*
X145415Y37776D01*
X146171Y37020D01*
X147741Y36370D01*
X149439D01*
X151009Y37020D01*
X151765Y37776D01*
X152521Y37020D01*
X154091Y36370D01*
X155789D01*
X157359Y37020D01*
X158560Y38221D01*
X159210Y39791D01*
Y41489D01*
X158560Y43059D01*
X157359Y44260D01*
X155789Y44910D01*
D02*
G37*
G36*
X-178370Y50510D02*
X-179770D01*
X-181064Y49974D01*
X-182054Y48984D01*
X-182590Y47690D01*
Y46290D01*
X-182054Y44996D01*
X-181064Y44006D01*
X-179770Y43470D01*
X-178370D01*
X-177076Y44006D01*
X-176086Y44996D01*
X-175550Y46290D01*
Y47690D01*
X-176086Y48984D01*
X-177076Y49974D01*
X-178370Y50510D01*
D02*
G37*
G36*
X-153670Y43570D02*
X-155538Y42797D01*
X-155575Y42760D01*
X-155612Y42797D01*
X-157480Y43570D01*
Y38100D01*
X-160020D01*
Y43570D01*
X-161888Y42797D01*
X-161925Y42760D01*
X-161962Y42797D01*
X-163830Y43570D01*
Y38100D01*
X-166370D01*
Y43570D01*
X-168238Y42797D01*
X-168275Y42760D01*
X-168312Y42797D01*
X-170180Y43570D01*
Y38100D01*
X-171450D01*
Y36830D01*
X-176920D01*
X-176147Y34962D01*
X-174840Y33655D01*
X-176147Y32348D01*
X-176920Y30480D01*
X-171450D01*
Y29210D01*
X-170180D01*
Y23740D01*
X-168312Y24513D01*
X-168275Y24550D01*
X-168238Y24513D01*
X-166370Y23740D01*
Y29210D01*
X-163830D01*
Y23740D01*
X-161962Y24513D01*
X-161925Y24550D01*
X-161888Y24513D01*
X-160020Y23740D01*
Y29210D01*
X-157480D01*
Y23740D01*
X-155612Y24513D01*
X-155575Y24550D01*
X-155538Y24513D01*
X-153670Y23740D01*
Y29210D01*
X-152400D01*
Y30480D01*
X-146930D01*
X-147703Y32348D01*
X-149010Y33655D01*
X-147703Y34962D01*
X-146930Y36830D01*
X-152400D01*
Y38100D01*
X-153670D01*
Y43570D01*
D02*
G37*
G36*
X-151130D02*
Y39370D01*
X-146930D01*
X-147703Y41238D01*
X-149262Y42797D01*
X-151130Y43570D01*
D02*
G37*
G36*
X-172720D02*
X-174588Y42797D01*
X-176147Y41238D01*
X-176920Y39370D01*
X-172720D01*
Y43570D01*
D02*
G37*
G36*
X6740Y43180D02*
X2540D01*
Y38980D01*
X4408Y39753D01*
X5967Y41312D01*
X6740Y43180D01*
D02*
G37*
G36*
X0D02*
X-4200D01*
X-3427Y41312D01*
X-1868Y39753D01*
X0Y38980D01*
Y43180D01*
D02*
G37*
G36*
X-118110Y37220D02*
X-119978Y36447D01*
X-120015Y36410D01*
X-120052Y36447D01*
X-121920Y37220D01*
Y31750D01*
Y26280D01*
X-120052Y27053D01*
X-120015Y27090D01*
X-119978Y27053D01*
X-118110Y26280D01*
Y31750D01*
Y37220D01*
D02*
G37*
G36*
X-124460D02*
X-126328Y36447D01*
X-126365Y36410D01*
X-126402Y36447D01*
X-128270Y37220D01*
Y31750D01*
Y26280D01*
X-126402Y27053D01*
X-126365Y27090D01*
X-126328Y27053D01*
X-124460Y26280D01*
Y31750D01*
Y37220D01*
D02*
G37*
G36*
X-72960Y40350D02*
X-74360D01*
X-75654Y39814D01*
X-76644Y38824D01*
X-77180Y37530D01*
Y36130D01*
X-76644Y34836D01*
X-75654Y33846D01*
X-74360Y33310D01*
X-72960D01*
X-71666Y33846D01*
X-70676Y34836D01*
X-70140Y36130D01*
Y37530D01*
X-70676Y38824D01*
X-71666Y39814D01*
X-72960Y40350D01*
D02*
G37*
G36*
X-115570Y37220D02*
Y33020D01*
X-111370D01*
X-112143Y34888D01*
X-113702Y36447D01*
X-115570Y37220D01*
D02*
G37*
G36*
X-130810D02*
X-132678Y36447D01*
X-134237Y34888D01*
X-135010Y33020D01*
X-130810D01*
Y37220D01*
D02*
G37*
G36*
Y30480D02*
X-135010D01*
X-134237Y28612D01*
X-132678Y27053D01*
X-130810Y26280D01*
Y30480D01*
D02*
G37*
G36*
X100330Y29600D02*
X98462Y28827D01*
X96903Y27268D01*
X96130Y25400D01*
X100330D01*
Y29600D01*
D02*
G37*
G36*
X-107950D02*
Y25400D01*
X-103750D01*
X-104523Y27268D01*
X-106082Y28827D01*
X-107950Y29600D01*
D02*
G37*
G36*
X-111370Y30480D02*
X-115570D01*
Y26280D01*
X-115295Y26394D01*
X-114576Y25675D01*
X-114690Y25400D01*
X-110490D01*
Y29600D01*
X-110765Y29486D01*
X-111484Y30205D01*
X-111370Y30480D01*
D02*
G37*
G36*
X-146930Y27940D02*
X-151130D01*
Y23740D01*
X-149262Y24513D01*
X-147703Y26072D01*
X-146930Y27940D01*
D02*
G37*
G36*
X-172720D02*
X-176920D01*
X-176147Y26072D01*
X-174588Y24513D01*
X-172720Y23740D01*
Y27940D01*
D02*
G37*
G36*
X-77470Y21980D02*
X-79338Y21207D01*
X-79375Y21170D01*
X-79412Y21207D01*
X-81280Y21980D01*
Y16510D01*
Y11040D01*
X-79412Y11813D01*
X-79375Y11850D01*
X-79338Y11813D01*
X-77492Y11049D01*
X-77860Y10160D01*
X-66920D01*
X-67693Y12028D01*
X-69252Y13587D01*
X-71098Y14351D01*
X-70730Y15240D01*
X-76200D01*
Y16510D01*
X-77470D01*
Y21980D01*
D02*
G37*
G36*
X-103750Y22860D02*
X-114690D01*
X-113917Y20992D01*
X-113880Y20955D01*
X-113917Y20918D01*
X-114690Y19050D01*
X-103750D01*
X-104523Y20918D01*
X-104560Y20955D01*
X-104523Y20992D01*
X-103750Y22860D01*
D02*
G37*
G36*
X-74930Y21980D02*
Y17780D01*
X-70730D01*
X-71503Y19648D01*
X-73062Y21207D01*
X-74930Y21980D01*
D02*
G37*
G36*
X-83820D02*
X-85688Y21207D01*
X-87247Y19648D01*
X-88020Y17780D01*
X-83820D01*
Y21980D01*
D02*
G37*
G36*
X-103750Y16510D02*
X-107950D01*
Y12310D01*
X-106082Y13083D01*
X-104523Y14642D01*
X-103750Y16510D01*
D02*
G37*
G36*
X-110490D02*
X-114690D01*
X-113917Y14642D01*
X-112358Y13083D01*
X-110490Y12310D01*
Y16510D01*
D02*
G37*
G36*
X-173290Y18760D02*
X-174690D01*
X-175984Y18224D01*
X-176974Y17234D01*
X-177510Y15940D01*
Y14540D01*
X-176974Y13246D01*
X-175984Y12256D01*
X-174690Y11720D01*
X-173290D01*
X-171996Y12256D01*
X-171006Y13246D01*
X-170470Y14540D01*
Y15940D01*
X-171006Y17234D01*
X-171996Y18224D01*
X-173290Y18760D01*
D02*
G37*
G36*
X-83820Y15240D02*
X-88020D01*
X-87247Y13372D01*
X-85688Y11813D01*
X-83820Y11040D01*
Y15240D01*
D02*
G37*
G36*
X117230Y12700D02*
X113030D01*
Y8500D01*
X114898Y9273D01*
X116457Y10832D01*
X117230Y12700D01*
D02*
G37*
G36*
X102870Y29600D02*
Y24130D01*
X101600D01*
Y22860D01*
X96130D01*
X96903Y20992D01*
X98462Y19433D01*
X100498Y18590D01*
X101140D01*
Y17948D01*
X101983Y15912D01*
X103542Y14353D01*
X105578Y13510D01*
X106220D01*
Y12868D01*
X107063Y10832D01*
X108622Y9273D01*
X110490Y8500D01*
Y13970D01*
X111760D01*
Y15240D01*
X117230D01*
X116457Y17108D01*
X114898Y18667D01*
X112862Y19510D01*
X112220D01*
Y20152D01*
X111377Y22188D01*
X109818Y23747D01*
X107782Y24590D01*
X107140D01*
Y25232D01*
X106297Y27268D01*
X104738Y28827D01*
X102870Y29600D01*
D02*
G37*
G36*
X-104140Y8010D02*
X-106008Y7237D01*
X-107315Y5930D01*
X-108622Y7237D01*
X-110490Y8010D01*
Y2540D01*
Y-2930D01*
X-108622Y-2157D01*
X-107315Y-850D01*
X-106008Y-2157D01*
X-104140Y-2930D01*
Y2540D01*
Y8010D01*
D02*
G37*
G36*
X-101600D02*
Y3810D01*
X-97400D01*
X-98173Y5678D01*
X-99732Y7237D01*
X-101600Y8010D01*
D02*
G37*
G36*
X-113030D02*
X-114898Y7237D01*
X-116457Y5678D01*
X-117230Y3810D01*
X-113030D01*
Y8010D01*
D02*
G37*
G36*
X-66920Y7620D02*
X-71120D01*
Y3420D01*
X-69252Y4193D01*
X-67693Y5752D01*
X-66920Y7620D01*
D02*
G37*
G36*
X-73660D02*
X-77860D01*
X-77087Y5752D01*
X-75528Y4193D01*
X-73660Y3420D01*
Y7620D01*
D02*
G37*
G36*
X-46990Y4200D02*
Y0D01*
X-42790D01*
X-43563Y1868D01*
X-45122Y3427D01*
X-46990Y4200D01*
D02*
G37*
G36*
X-49530D02*
X-51398Y3427D01*
X-52957Y1868D01*
X-53730Y0D01*
X-49530D01*
Y4200D01*
D02*
G37*
G36*
X-138430Y1660D02*
Y-2540D01*
X-134230D01*
X-135003Y-672D01*
X-136562Y887D01*
X-138430Y1660D01*
D02*
G37*
G36*
X-140970D02*
X-142838Y887D01*
X-144397Y-672D01*
X-145170Y-2540D01*
X-140970D01*
Y1660D01*
D02*
G37*
G36*
X-97400Y1270D02*
X-101600D01*
Y-2930D01*
X-99732Y-2157D01*
X-98173Y-598D01*
X-97400Y1270D01*
D02*
G37*
G36*
X-113030D02*
X-117230D01*
X-116457Y-598D01*
X-114898Y-2157D01*
X-113030Y-2930D01*
Y1270D01*
D02*
G37*
G36*
X-120650Y390D02*
Y-3810D01*
X-116450D01*
X-117223Y-1942D01*
X-118782Y-383D01*
X-120650Y390D01*
D02*
G37*
G36*
X-123190D02*
X-125058Y-383D01*
X-126617Y-1942D01*
X-127390Y-3810D01*
X-123190D01*
Y390D01*
D02*
G37*
G36*
X-42238Y-2540D02*
X-53730D01*
X-52957Y-4408D01*
X-51398Y-5967D01*
X-50472Y-6350D01*
X-38980D01*
X-39753Y-4482D01*
X-41312Y-2923D01*
X-42238Y-2540D01*
D02*
G37*
G36*
X128563Y-4644D02*
X126695Y-5418D01*
X125137Y-6977D01*
X124363Y-8845D01*
X128563D01*
Y-4644D01*
D02*
G37*
G36*
X-134230Y-5080D02*
X-145170D01*
X-144397Y-6948D01*
X-143725Y-7620D01*
X-144397Y-8292D01*
X-145170Y-10160D01*
X-134230D01*
X-135003Y-8292D01*
X-135675Y-7620D01*
X-135003Y-6948D01*
X-134230Y-5080D01*
D02*
G37*
G36*
X-116450Y-6350D02*
X-127390D01*
X-126617Y-8218D01*
X-125945Y-8890D01*
X-126617Y-9562D01*
X-127390Y-11430D01*
X-116450D01*
X-117223Y-9562D01*
X-117895Y-8890D01*
X-117223Y-8218D01*
X-116450Y-6350D01*
D02*
G37*
G36*
X66040Y-14391D02*
Y-17780D01*
X69429D01*
X68831Y-16337D01*
X67483Y-14989D01*
X66040Y-14391D01*
D02*
G37*
G36*
X-134230Y-12700D02*
X-145170D01*
X-144397Y-14568D01*
X-143725Y-15240D01*
X-144397Y-15912D01*
X-145170Y-17780D01*
X-134230D01*
X-135003Y-15912D01*
X-135675Y-15240D01*
X-135003Y-14568D01*
X-134230Y-12700D01*
D02*
G37*
G36*
X-116450Y-13970D02*
X-120650D01*
Y-18170D01*
X-118782Y-17397D01*
X-117223Y-15838D01*
X-116450Y-13970D01*
D02*
G37*
G36*
X-123190D02*
X-127390D01*
X-126617Y-15838D01*
X-125058Y-17397D01*
X-123190Y-18170D01*
Y-13970D01*
D02*
G37*
G36*
X63500Y-14391D02*
X62057Y-14989D01*
X60709Y-16337D01*
X59980Y-18097D01*
Y-19550D01*
X59181Y-20279D01*
X59041Y-20327D01*
X58880Y-20278D01*
Y-19471D01*
X58230Y-17901D01*
X57029Y-16700D01*
X55459Y-16050D01*
X53761D01*
X52191Y-16700D01*
X50990Y-17901D01*
X50340Y-19471D01*
Y-21169D01*
X50990Y-22739D01*
X52191Y-23940D01*
X53761Y-24590D01*
X55420D01*
Y-26249D01*
X56070Y-27819D01*
X57271Y-29020D01*
X58841Y-29670D01*
X60500D01*
Y-31329D01*
X61111Y-32805D01*
X61165Y-33146D01*
X61005Y-33949D01*
X60787Y-34039D01*
X59439Y-35387D01*
X59349Y-35605D01*
X58546Y-35765D01*
X58205Y-35711D01*
X56729Y-35100D01*
X55070D01*
Y-33441D01*
X54420Y-31871D01*
X53219Y-30670D01*
X51649Y-30020D01*
X49990D01*
Y-28361D01*
X49340Y-26791D01*
X48139Y-25590D01*
X46569Y-24940D01*
X44871D01*
X43301Y-25590D01*
X42100Y-26791D01*
X41450Y-28361D01*
Y-30059D01*
X42100Y-31629D01*
X43301Y-32830D01*
X44871Y-33480D01*
X46530D01*
Y-35139D01*
X47180Y-36709D01*
X48381Y-37910D01*
X49951Y-38560D01*
X51610D01*
Y-40219D01*
X52260Y-41789D01*
X52614Y-42142D01*
X52565Y-43531D01*
X51819Y-44277D01*
X51098Y-46018D01*
X49357Y-46739D01*
X48009Y-48087D01*
X47411Y-49530D01*
X52070D01*
Y-50800D01*
X53340D01*
Y-55459D01*
X54783Y-54861D01*
X56131Y-53513D01*
X56852Y-51772D01*
X58593Y-51051D01*
X59941Y-49703D01*
X60539Y-48260D01*
X55880D01*
Y-45720D01*
X60539D01*
X59941Y-44277D01*
X59195Y-43531D01*
X59146Y-42142D01*
X59239Y-42050D01*
X60486Y-41860D01*
X60787Y-42161D01*
X62230Y-42759D01*
Y-38100D01*
X63500D01*
Y-36830D01*
X68159D01*
X67561Y-35387D01*
X67260Y-35086D01*
X67450Y-33839D01*
X68390Y-32899D01*
X69040Y-31329D01*
Y-29631D01*
X68390Y-28061D01*
X67189Y-26860D01*
X65619Y-26210D01*
X63960D01*
Y-24551D01*
X64765Y-23840D01*
X65723D01*
X67483Y-23111D01*
X68831Y-21763D01*
X69429Y-20320D01*
X64770D01*
Y-19050D01*
X63500D01*
Y-14391D01*
D02*
G37*
G36*
X140384Y-16465D02*
X136183D01*
Y-20665D01*
X138052Y-19891D01*
X139610Y-18333D01*
X140384Y-16465D01*
D02*
G37*
G36*
X131103Y-4644D02*
Y-10115D01*
X129833D01*
Y-11385D01*
X124363D01*
X125137Y-13253D01*
X126695Y-14811D01*
X128731Y-15655D01*
X129373D01*
Y-16297D01*
X130217Y-18333D01*
X131775Y-19891D01*
X133643Y-20665D01*
Y-15195D01*
X134913D01*
Y-13925D01*
X140384D01*
X139610Y-12056D01*
X138052Y-10498D01*
X136015Y-9655D01*
X135373D01*
Y-9013D01*
X134530Y-6977D01*
X132971Y-5418D01*
X131103Y-4644D01*
D02*
G37*
G36*
X-49530Y-17780D02*
X-53730D01*
X-52957Y-19648D01*
X-51398Y-21207D01*
X-49530Y-21980D01*
Y-17780D01*
D02*
G37*
G36*
X-187960Y-21200D02*
X-189828Y-21973D01*
X-190500Y-22645D01*
X-191172Y-21973D01*
X-193040Y-21200D01*
Y-26670D01*
Y-32140D01*
X-191172Y-31367D01*
X-190500Y-30695D01*
X-189828Y-31367D01*
X-187960Y-32140D01*
Y-26670D01*
Y-21200D01*
D02*
G37*
G36*
X-195580D02*
X-197448Y-21973D01*
X-198120Y-22645D01*
X-198792Y-21973D01*
X-200660Y-21200D01*
Y-26670D01*
Y-32140D01*
X-198792Y-31367D01*
X-198120Y-30695D01*
X-197448Y-31367D01*
X-195580Y-32140D01*
Y-26670D01*
Y-21200D01*
D02*
G37*
G36*
X-57150D02*
X-59018Y-21973D01*
X-60325Y-23280D01*
X-61632Y-21973D01*
X-63500Y-21200D01*
Y-26670D01*
X-66040D01*
Y-21200D01*
X-67908Y-21973D01*
X-68580Y-22645D01*
X-69252Y-21973D01*
X-71120Y-21200D01*
Y-26670D01*
X-72390D01*
Y-27940D01*
X-77860D01*
X-77087Y-29808D01*
X-75780Y-31115D01*
X-77087Y-32422D01*
X-77860Y-34290D01*
X-72390D01*
Y-36830D01*
X-77860D01*
X-77087Y-38698D01*
X-75780Y-40005D01*
X-77087Y-41312D01*
X-77860Y-43180D01*
X-72390D01*
Y-44450D01*
X-71120D01*
Y-49920D01*
X-69252Y-49147D01*
X-68580Y-48475D01*
X-67908Y-49147D01*
X-66040Y-49920D01*
Y-44450D01*
X-63500D01*
Y-49920D01*
X-61632Y-49147D01*
X-60325Y-47840D01*
X-59018Y-49147D01*
X-57150Y-49920D01*
Y-44450D01*
X-55880D01*
Y-43180D01*
X-50410D01*
X-51183Y-41312D01*
X-52490Y-40005D01*
X-51183Y-38698D01*
X-50410Y-36830D01*
X-55880D01*
Y-34290D01*
X-50410D01*
X-51183Y-32422D01*
X-52490Y-31115D01*
X-51183Y-29808D01*
X-50410Y-27940D01*
X-55880D01*
Y-26670D01*
X-57150D01*
Y-21200D01*
D02*
G37*
G36*
X-54610D02*
Y-25400D01*
X-50410D01*
X-51183Y-23532D01*
X-52742Y-21973D01*
X-54610Y-21200D01*
D02*
G37*
G36*
X-73660D02*
X-75528Y-21973D01*
X-77087Y-23532D01*
X-77860Y-25400D01*
X-73660D01*
Y-21200D01*
D02*
G37*
G36*
X-185420D02*
Y-25400D01*
X-181220D01*
X-181993Y-23532D01*
X-183552Y-21973D01*
X-185420Y-21200D01*
D02*
G37*
G36*
X-203200D02*
X-205068Y-21973D01*
X-206627Y-23532D01*
X-207400Y-25400D01*
X-203200D01*
Y-21200D01*
D02*
G37*
G36*
X-134230Y-20320D02*
X-145170D01*
X-144397Y-22188D01*
X-142838Y-23747D01*
X-141072Y-24478D01*
X-140960Y-25472D01*
X-140971Y-25536D01*
X-141568Y-25783D01*
X-143127Y-27342D01*
X-143900Y-29210D01*
X-132960D01*
X-133733Y-27342D01*
X-135292Y-25783D01*
X-137058Y-25052D01*
X-137170Y-24058D01*
X-137159Y-23994D01*
X-136562Y-23747D01*
X-135003Y-22188D01*
X-134230Y-20320D01*
D02*
G37*
G36*
X-38980Y-8890D02*
X-49920D01*
X-49462Y-9996D01*
X-49371Y-10884D01*
X-49970Y-11222D01*
X-51398Y-11813D01*
X-52957Y-13372D01*
X-53730Y-15240D01*
X-48260D01*
Y-16510D01*
X-46990D01*
Y-22532D01*
X-46607Y-23458D01*
X-45048Y-25017D01*
X-43012Y-25860D01*
X-41100D01*
Y-26502D01*
X-40257Y-28538D01*
X-40220Y-28575D01*
X-40257Y-28612D01*
X-41030Y-30480D01*
X-30090D01*
X-30863Y-28612D01*
X-30900Y-28575D01*
X-30863Y-28538D01*
X-30090Y-26670D01*
X-35560D01*
Y-24130D01*
X-30090D01*
X-30863Y-22262D01*
X-32422Y-20703D01*
X-34458Y-19860D01*
X-36370D01*
Y-19218D01*
X-37213Y-17182D01*
X-38772Y-15623D01*
X-40640Y-14850D01*
Y-20320D01*
X-43180D01*
Y-14297D01*
X-43248Y-14134D01*
X-43339Y-13246D01*
X-42740Y-12908D01*
X-41312Y-12317D01*
X-39753Y-10758D01*
X-38980Y-8890D01*
D02*
G37*
G36*
X-181220Y-27940D02*
X-185420D01*
Y-32140D01*
X-183552Y-31367D01*
X-181993Y-29808D01*
X-181220Y-27940D01*
D02*
G37*
G36*
X-203200D02*
X-207400D01*
X-206627Y-29808D01*
X-205068Y-31367D01*
X-203200Y-32140D01*
Y-27940D01*
D02*
G37*
G36*
X-132960Y-31750D02*
X-137160D01*
Y-35950D01*
X-135292Y-35177D01*
X-133733Y-33618D01*
X-132960Y-31750D01*
D02*
G37*
G36*
X-139700D02*
X-143900D01*
X-143127Y-33618D01*
X-141568Y-35177D01*
X-139700Y-35950D01*
Y-31750D01*
D02*
G37*
G36*
X-158743Y-30080D02*
X-160037D01*
X-161231Y-30575D01*
X-162145Y-31489D01*
X-162640Y-32684D01*
Y-33977D01*
X-162145Y-35171D01*
X-161231Y-36085D01*
X-160037Y-36580D01*
X-158743D01*
X-157549Y-36085D01*
X-156635Y-35171D01*
X-156140Y-33977D01*
Y-32684D01*
X-156635Y-31489D01*
X-157549Y-30575D01*
X-158743Y-30080D01*
D02*
G37*
G36*
X115570Y-33441D02*
Y-36830D01*
X118959D01*
X118361Y-35387D01*
X117013Y-34039D01*
X115570Y-33441D01*
D02*
G37*
G36*
X113030D02*
X111587Y-34039D01*
X110239Y-35387D01*
X109641Y-36830D01*
X113030D01*
Y-33441D01*
D02*
G37*
G36*
X-30090Y-33020D02*
X-34290D01*
Y-37220D01*
X-32422Y-36447D01*
X-30863Y-34888D01*
X-30090Y-33020D01*
D02*
G37*
G36*
X-36830D02*
X-41030D01*
X-40257Y-34888D01*
X-38698Y-36447D01*
X-36830Y-37220D01*
Y-33020D01*
D02*
G37*
G36*
X118959Y-39370D02*
X115570D01*
Y-42759D01*
X117013Y-42161D01*
X118361Y-40813D01*
X118959Y-39370D01*
D02*
G37*
G36*
X113030D02*
X109641D01*
X110239Y-40813D01*
X111587Y-42161D01*
X113030Y-42759D01*
Y-39370D01*
D02*
G37*
G36*
X68159D02*
X64770D01*
Y-42759D01*
X66213Y-42161D01*
X67561Y-40813D01*
X68159Y-39370D01*
D02*
G37*
G36*
X165100Y-38980D02*
X163232Y-39753D01*
X161673Y-41312D01*
X160900Y-43180D01*
X165100D01*
Y-38980D01*
D02*
G37*
G36*
X91723Y-38434D02*
Y-43905D01*
X89183D01*
Y-38434D01*
X87315Y-39208D01*
X85756Y-40767D01*
X84913Y-42803D01*
Y-43753D01*
X83963D01*
X81927Y-44596D01*
X80368Y-46155D01*
X79594Y-48023D01*
X85065D01*
Y-50563D01*
X78370D01*
X76872Y-51183D01*
X75313Y-52742D01*
X74470Y-54778D01*
Y-55420D01*
X73828D01*
X71792Y-56263D01*
X70233Y-57822D01*
X69460Y-59690D01*
X74930D01*
Y-62230D01*
X69460D01*
X70233Y-64098D01*
X71792Y-65657D01*
X73828Y-66500D01*
X74470D01*
Y-67142D01*
X75313Y-69178D01*
X76872Y-70737D01*
X78908Y-71580D01*
X79550D01*
Y-72222D01*
X80393Y-74258D01*
X81952Y-75817D01*
X83988Y-76660D01*
X84913D01*
Y-77336D01*
X85756Y-79372D01*
X87315Y-80930D01*
X89351Y-81774D01*
X90301D01*
Y-82724D01*
X91144Y-84760D01*
X92703Y-86318D01*
X94571Y-87092D01*
Y-81622D01*
X97111D01*
Y-87092D01*
X98979Y-86318D01*
X100538Y-84760D01*
X101381Y-82724D01*
Y-81774D01*
X102331D01*
X104367Y-80930D01*
X105926Y-79372D01*
X106769Y-77336D01*
Y-76385D01*
X107719D01*
X109755Y-75542D01*
X111314Y-73984D01*
X112157Y-71947D01*
Y-70997D01*
X113108D01*
X115144Y-70154D01*
X116702Y-68595D01*
X117476Y-66727D01*
X112006D01*
Y-64187D01*
X117476D01*
X116702Y-62319D01*
X115144Y-60761D01*
X113108Y-59917D01*
X112157D01*
Y-58967D01*
X111314Y-56931D01*
X109755Y-55373D01*
X107719Y-54529D01*
X106769D01*
Y-53579D01*
X105926Y-51543D01*
X104367Y-49984D01*
X102331Y-49141D01*
X101381D01*
Y-48191D01*
X100538Y-46155D01*
X98979Y-44596D01*
X96943Y-43753D01*
X95993D01*
Y-42803D01*
X95149Y-40767D01*
X93591Y-39208D01*
X91723Y-38434D01*
D02*
G37*
G36*
X124460Y-40250D02*
Y-44450D01*
X128660D01*
X127887Y-42582D01*
X126328Y-41023D01*
X124460Y-40250D01*
D02*
G37*
G36*
X121920D02*
X120052Y-41023D01*
X118493Y-42582D01*
X117720Y-44450D01*
X121920D01*
Y-40250D01*
D02*
G37*
G36*
X-159320Y-38390D02*
X-160720D01*
X-162014Y-38926D01*
X-163004Y-39916D01*
X-163540Y-41210D01*
Y-42610D01*
X-163004Y-43904D01*
X-162014Y-44894D01*
X-160720Y-45430D01*
X-159320D01*
X-158026Y-44894D01*
X-157036Y-43904D01*
X-156500Y-42610D01*
Y-41210D01*
X-157036Y-39916D01*
X-158026Y-38926D01*
X-159320Y-38390D01*
D02*
G37*
G36*
X-50410Y-45720D02*
X-54610D01*
Y-49920D01*
X-52742Y-49147D01*
X-51183Y-47588D01*
X-50410Y-45720D01*
D02*
G37*
G36*
X-73660D02*
X-77860D01*
X-77087Y-47588D01*
X-75528Y-49147D01*
X-73660Y-49920D01*
Y-45720D01*
D02*
G37*
G36*
X128660Y-46990D02*
X124460D01*
Y-51190D01*
X126328Y-50417D01*
X127887Y-48858D01*
X128660Y-46990D01*
D02*
G37*
G36*
X121920D02*
X117720D01*
X118493Y-48858D01*
X120052Y-50417D01*
X121920Y-51190D01*
Y-46990D01*
D02*
G37*
G36*
X50800Y-52070D02*
X47411D01*
X48009Y-53513D01*
X49357Y-54861D01*
X50800Y-55459D01*
Y-52070D01*
D02*
G37*
G36*
X-157901Y-50340D02*
X-159599D01*
X-161169Y-50990D01*
X-162370Y-52191D01*
X-163020Y-53761D01*
Y-55459D01*
X-162370Y-57029D01*
X-161169Y-58230D01*
X-159599Y-58880D01*
X-157901D01*
X-156331Y-58230D01*
X-155130Y-57029D01*
X-154480Y-55459D01*
Y-53761D01*
X-155130Y-52191D01*
X-156331Y-50990D01*
X-157901Y-50340D01*
D02*
G37*
G36*
X182000Y-55880D02*
X177800D01*
Y-60080D01*
X179668Y-59307D01*
X181227Y-57748D01*
X182000Y-55880D01*
D02*
G37*
G36*
X167640Y-38980D02*
Y-44450D01*
X166370D01*
Y-45720D01*
X160900D01*
X161673Y-47588D01*
X163232Y-49147D01*
X165268Y-49990D01*
X165910D01*
Y-50632D01*
X166753Y-52668D01*
X168312Y-54227D01*
X170348Y-55070D01*
X170990D01*
Y-55712D01*
X171833Y-57748D01*
X173392Y-59307D01*
X175260Y-60080D01*
Y-54610D01*
X176530D01*
Y-53340D01*
X182000D01*
X181227Y-51472D01*
X179668Y-49913D01*
X177632Y-49070D01*
X176990D01*
Y-48428D01*
X176147Y-46392D01*
X174588Y-44833D01*
X172552Y-43990D01*
X171910D01*
Y-43348D01*
X171067Y-41312D01*
X169508Y-39753D01*
X167640Y-38980D01*
D02*
G37*
G36*
X-84390Y-49820D02*
X-85790D01*
X-87084Y-50356D01*
X-88074Y-51346D01*
X-88610Y-52640D01*
Y-54040D01*
X-88074Y-55334D01*
X-87528Y-55880D01*
X-88074Y-56426D01*
X-88610Y-57720D01*
Y-59120D01*
X-88074Y-60414D01*
X-87084Y-61404D01*
X-85790Y-61940D01*
X-84390D01*
X-83096Y-61404D01*
X-82106Y-60414D01*
X-81570Y-59120D01*
Y-57720D01*
X-82106Y-56426D01*
X-82652Y-55880D01*
X-82106Y-55334D01*
X-81570Y-54040D01*
Y-52640D01*
X-82106Y-51346D01*
X-83096Y-50356D01*
X-84390Y-49820D01*
D02*
G37*
G36*
X-39370Y-59300D02*
Y-63500D01*
X-35170D01*
X-35943Y-61632D01*
X-37502Y-60073D01*
X-39370Y-59300D01*
D02*
G37*
G36*
X-41910D02*
X-43778Y-60073D01*
X-45337Y-61632D01*
X-46110Y-63500D01*
X-41910D01*
Y-59300D01*
D02*
G37*
G36*
X-62230D02*
Y-63500D01*
X-58030D01*
X-58803Y-61632D01*
X-60362Y-60073D01*
X-62230Y-59300D01*
D02*
G37*
G36*
X-64770D02*
X-66638Y-60073D01*
X-68197Y-61632D01*
X-68970Y-63500D01*
X-64770D01*
Y-59300D01*
D02*
G37*
G36*
X133350Y-60570D02*
Y-64770D01*
X137550D01*
X136777Y-62902D01*
X135218Y-61343D01*
X133350Y-60570D01*
D02*
G37*
G36*
X130810D02*
X128942Y-61343D01*
X127383Y-62902D01*
X126610Y-64770D01*
X130810D01*
Y-60570D01*
D02*
G37*
G36*
X-157901Y-60500D02*
X-159599D01*
X-161169Y-61150D01*
X-162370Y-62351D01*
X-163020Y-63921D01*
Y-65619D01*
X-162370Y-67189D01*
X-161169Y-68390D01*
X-159599Y-69040D01*
X-157901D01*
X-156331Y-68390D01*
X-155130Y-67189D01*
X-154480Y-65619D01*
Y-63921D01*
X-155130Y-62351D01*
X-156331Y-61150D01*
X-157901Y-60500D01*
D02*
G37*
G36*
X-58030Y-66040D02*
X-62230D01*
Y-70240D01*
X-60362Y-69467D01*
X-58803Y-67908D01*
X-58030Y-66040D01*
D02*
G37*
G36*
X-64770D02*
X-68970D01*
X-68197Y-67908D01*
X-66638Y-69467D01*
X-64770Y-70240D01*
Y-66040D01*
D02*
G37*
G36*
X-35170D02*
X-39370D01*
Y-70240D01*
X-37502Y-69467D01*
X-35943Y-67908D01*
X-35170Y-66040D01*
D02*
G37*
G36*
X-41910D02*
X-46110D01*
X-45337Y-67908D01*
X-43778Y-69467D01*
X-41910Y-70240D01*
Y-66040D01*
D02*
G37*
G36*
X137550Y-67310D02*
X133350D01*
Y-71510D01*
X135218Y-70737D01*
X136777Y-69178D01*
X137550Y-67310D01*
D02*
G37*
G36*
X130810D02*
X126610D01*
X127383Y-69178D01*
X128942Y-70737D01*
X130810Y-71510D01*
Y-67310D01*
D02*
G37*
G36*
X-85090Y-67350D02*
Y-71550D01*
X-80890D01*
X-81663Y-69682D01*
X-83222Y-68123D01*
X-85090Y-67350D01*
D02*
G37*
G36*
X-104140D02*
X-106008Y-68123D01*
X-107567Y-69682D01*
X-108340Y-71550D01*
X-104140D01*
Y-67350D01*
D02*
G37*
G36*
X-87630D02*
X-89498Y-68123D01*
X-91057Y-69682D01*
X-91900Y-71718D01*
Y-73462D01*
X-92766Y-74153D01*
X-92839Y-74173D01*
X-93980Y-73700D01*
Y-79170D01*
Y-84641D01*
X-92112Y-83867D01*
X-90553Y-82308D01*
X-89710Y-80272D01*
Y-78529D01*
X-88844Y-77837D01*
X-88771Y-77818D01*
X-87630Y-78291D01*
Y-72820D01*
Y-67350D01*
D02*
G37*
G36*
X-80890Y-74090D02*
X-85090D01*
Y-78291D01*
X-83222Y-77517D01*
X-81663Y-75958D01*
X-80890Y-74090D01*
D02*
G37*
G36*
X-104140D02*
X-108340D01*
X-107567Y-75958D01*
X-106008Y-77517D01*
X-104140Y-78291D01*
Y-74090D01*
D02*
G37*
G36*
X-101600Y-67350D02*
Y-72820D01*
Y-78479D01*
X-100790Y-79055D01*
Y-80272D01*
X-99947Y-82308D01*
X-98388Y-83867D01*
X-96520Y-84641D01*
Y-79170D01*
Y-73511D01*
X-97330Y-72936D01*
Y-71718D01*
X-98173Y-69682D01*
X-99732Y-68123D01*
X-101600Y-67350D01*
D02*
G37*
G36*
X125309Y-84630D02*
X123611D01*
X122041Y-85280D01*
X120840Y-86481D01*
X120520Y-87254D01*
X119380Y-86781D01*
Y-91440D01*
X118110D01*
Y-92710D01*
X113451D01*
X113924Y-93850D01*
X113151Y-94170D01*
X111950Y-95371D01*
X111630Y-96144D01*
X110490Y-95671D01*
Y-100330D01*
X109220D01*
Y-101600D01*
X104561D01*
X105159Y-103043D01*
X106256Y-104140D01*
X111760D01*
Y-105410D01*
X113030D01*
Y-110069D01*
X114473Y-109471D01*
X115821Y-108123D01*
X116550Y-106363D01*
Y-106245D01*
X117566Y-105825D01*
X118231Y-106490D01*
X119801Y-107140D01*
X121460D01*
Y-108799D01*
X122110Y-110369D01*
X123311Y-111570D01*
X124881Y-112220D01*
X126579D01*
X128149Y-111570D01*
X129350Y-110369D01*
X130000Y-108799D01*
Y-107101D01*
X129350Y-105531D01*
X128149Y-104330D01*
X126579Y-103680D01*
X124920D01*
Y-102021D01*
X124309Y-100545D01*
X124255Y-100204D01*
X124415Y-99401D01*
X124633Y-99311D01*
X125981Y-97963D01*
X126071Y-97745D01*
X126874Y-97585D01*
X127215Y-97639D01*
X128691Y-98250D01*
X130350D01*
Y-99909D01*
X131000Y-101479D01*
X132201Y-102680D01*
X133771Y-103330D01*
X135469D01*
X137039Y-102680D01*
X138240Y-101479D01*
X138890Y-99909D01*
Y-98770D01*
X140653D01*
X142413Y-98041D01*
X143761Y-96693D01*
X144359Y-95250D01*
X139700D01*
Y-93980D01*
X138430D01*
Y-89321D01*
X136987Y-89919D01*
X135639Y-91267D01*
X134910Y-93027D01*
Y-94790D01*
X133810D01*
Y-93131D01*
X133160Y-91561D01*
X131959Y-90360D01*
X130389Y-89710D01*
X128730D01*
Y-88051D01*
X128080Y-86481D01*
X126879Y-85280D01*
X125309Y-84630D01*
D02*
G37*
G36*
X116840Y-86781D02*
X115397Y-87379D01*
X114049Y-88727D01*
X113451Y-90170D01*
X116840D01*
Y-86781D01*
D02*
G37*
G36*
X-160885Y-80300D02*
X-162285D01*
X-163579Y-80836D01*
X-164569Y-81826D01*
X-165105Y-83120D01*
Y-84520D01*
X-164569Y-85814D01*
X-163579Y-86804D01*
X-162285Y-87340D01*
X-161388D01*
X-161186Y-88356D01*
X-161231Y-88375D01*
X-162145Y-89289D01*
X-162640Y-90484D01*
Y-91776D01*
X-163449Y-92477D01*
X-163830Y-92320D01*
Y-96520D01*
X-159630D01*
X-160107Y-95367D01*
X-159416Y-94380D01*
X-158743D01*
X-157549Y-93885D01*
X-156635Y-92971D01*
X-156140Y-91776D01*
Y-90484D01*
X-156635Y-89289D01*
X-157549Y-88375D01*
X-158743Y-87880D01*
X-159534D01*
X-159736Y-86864D01*
X-159591Y-86804D01*
X-158601Y-85814D01*
X-158065Y-84520D01*
Y-83120D01*
X-158601Y-81826D01*
X-159591Y-80836D01*
X-160885Y-80300D01*
D02*
G37*
G36*
X140970Y-89321D02*
Y-92710D01*
X144359D01*
X143761Y-91267D01*
X142413Y-89919D01*
X140970Y-89321D01*
D02*
G37*
G36*
X-137160Y-88510D02*
Y-92710D01*
X-132960D01*
X-133733Y-90842D01*
X-135292Y-89283D01*
X-137160Y-88510D01*
D02*
G37*
G36*
X-139700D02*
X-141568Y-89283D01*
X-143127Y-90842D01*
X-143900Y-92710D01*
X-139700D01*
Y-88510D01*
D02*
G37*
G36*
X-189230Y-92320D02*
X-191098Y-93093D01*
X-191135Y-93130D01*
X-191172Y-93093D01*
X-193040Y-92320D01*
Y-97790D01*
Y-103260D01*
X-191172Y-102487D01*
X-191135Y-102450D01*
X-191098Y-102487D01*
X-189230Y-103260D01*
Y-97790D01*
Y-92320D01*
D02*
G37*
G36*
X-195580D02*
X-197448Y-93093D01*
X-197485Y-93130D01*
X-197522Y-93093D01*
X-199390Y-92320D01*
Y-97790D01*
Y-103260D01*
X-197522Y-102487D01*
X-197485Y-102450D01*
X-197448Y-102487D01*
X-195580Y-103260D01*
Y-97790D01*
Y-92320D01*
D02*
G37*
G36*
X-37251Y-90980D02*
X-38949D01*
X-40519Y-91630D01*
X-41720Y-92831D01*
X-41995Y-93496D01*
X-43095D01*
X-43370Y-92831D01*
X-44571Y-91630D01*
X-46141Y-90980D01*
X-47839D01*
X-49409Y-91630D01*
X-50610Y-92831D01*
X-51260Y-94401D01*
Y-96099D01*
X-50610Y-97669D01*
X-49409Y-98870D01*
X-47839Y-99520D01*
X-46141D01*
X-44571Y-98870D01*
X-43370Y-97669D01*
X-43095Y-97004D01*
X-41995D01*
X-41720Y-97669D01*
X-40519Y-98870D01*
X-38949Y-99520D01*
X-37251D01*
X-35681Y-98870D01*
X-34480Y-97669D01*
X-33830Y-96099D01*
Y-94401D01*
X-34480Y-92831D01*
X-35681Y-91630D01*
X-37251Y-90980D01*
D02*
G37*
G36*
X6350Y-89780D02*
Y-93980D01*
X10550D01*
X9777Y-92112D01*
X8218Y-90553D01*
X6350Y-89780D01*
D02*
G37*
G36*
X3810D02*
X1942Y-90553D01*
X383Y-92112D01*
X-390Y-93980D01*
X3810D01*
Y-89780D01*
D02*
G37*
G36*
X-166370Y-92320D02*
X-168238Y-93093D01*
X-169797Y-94652D01*
X-170570Y-96520D01*
X-166370D01*
Y-92320D01*
D02*
G37*
G36*
X-186690D02*
Y-96520D01*
X-182490D01*
X-183263Y-94652D01*
X-184822Y-93093D01*
X-186690Y-92320D01*
D02*
G37*
G36*
X-201930D02*
X-203798Y-93093D01*
X-205357Y-94652D01*
X-206130Y-96520D01*
X-201930D01*
Y-92320D01*
D02*
G37*
G36*
X107950Y-95671D02*
X106507Y-96269D01*
X105159Y-97617D01*
X104561Y-99060D01*
X107950D01*
Y-95671D01*
D02*
G37*
G36*
X-132960Y-95250D02*
X-143900D01*
X-143477Y-96272D01*
X-144397Y-97192D01*
X-145170Y-99060D01*
X-134230D01*
X-134653Y-98038D01*
X-133733Y-97118D01*
X-132960Y-95250D01*
D02*
G37*
G36*
X-14391Y-90980D02*
X-16089D01*
X-17659Y-91630D01*
X-18860Y-92831D01*
X-19510Y-94401D01*
Y-96099D01*
X-18860Y-97669D01*
X-17659Y-98870D01*
X-16089Y-99520D01*
X-14391D01*
X-12821Y-98870D01*
X-11620Y-97669D01*
X-10970Y-96099D01*
Y-94401D01*
X-11620Y-92831D01*
X-12821Y-91630D01*
X-14391Y-90980D01*
D02*
G37*
G36*
X-62651D02*
X-64349D01*
X-65919Y-91630D01*
X-67120Y-92831D01*
X-67770Y-94401D01*
Y-96099D01*
X-67120Y-97669D01*
X-65919Y-98870D01*
X-64349Y-99520D01*
X-62651D01*
X-61081Y-98870D01*
X-59880Y-97669D01*
X-59230Y-96099D01*
Y-94401D01*
X-59880Y-92831D01*
X-61081Y-91630D01*
X-62651Y-90980D01*
D02*
G37*
G36*
X10550Y-96520D02*
X6350D01*
Y-100720D01*
X8218Y-99947D01*
X9777Y-98388D01*
X10550Y-96520D01*
D02*
G37*
G36*
X3810D02*
X-390D01*
X383Y-98388D01*
X1942Y-99947D01*
X3810Y-100720D01*
Y-96520D01*
D02*
G37*
G36*
X72390Y-99481D02*
Y-102870D01*
X75779D01*
X75181Y-101427D01*
X73833Y-100079D01*
X72390Y-99481D01*
D02*
G37*
G36*
X69850D02*
X68407Y-100079D01*
X67059Y-101427D01*
X66461Y-102870D01*
X69850D01*
Y-99481D01*
D02*
G37*
G36*
X-182490Y-99060D02*
X-186690D01*
Y-103260D01*
X-184822Y-102487D01*
X-183263Y-100928D01*
X-182490Y-99060D01*
D02*
G37*
G36*
X-201930D02*
X-206130D01*
X-205357Y-100928D01*
X-203798Y-102487D01*
X-201930Y-103260D01*
Y-99060D01*
D02*
G37*
G36*
X38100Y-99940D02*
Y-104140D01*
X42300D01*
X41527Y-102272D01*
X39968Y-100713D01*
X38100Y-99940D01*
D02*
G37*
G36*
X35560D02*
X33692Y-100713D01*
X32133Y-102272D01*
X31360Y-104140D01*
X35560D01*
Y-99940D01*
D02*
G37*
G36*
X-97790D02*
Y-104140D01*
X-93590D01*
X-94363Y-102272D01*
X-95922Y-100713D01*
X-97790Y-99940D01*
D02*
G37*
G36*
X-100330D02*
X-102198Y-100713D01*
X-103757Y-102272D01*
X-104530Y-104140D01*
X-100330D01*
Y-99940D01*
D02*
G37*
G36*
X-159630Y-99060D02*
X-170570D01*
X-169797Y-100928D01*
X-169331Y-101394D01*
X-169752Y-102410D01*
X-171282D01*
X-173318Y-103253D01*
X-174625Y-104560D01*
X-175932Y-103253D01*
X-177800Y-102480D01*
Y-107950D01*
X-179070D01*
Y-109220D01*
X-184540D01*
X-183767Y-111088D01*
X-183095Y-111760D01*
X-183767Y-112432D01*
X-184540Y-114300D01*
X-179070D01*
Y-115570D01*
X-177800D01*
Y-121040D01*
X-175932Y-120267D01*
X-174625Y-118960D01*
X-173318Y-120267D01*
X-171450Y-121040D01*
Y-115570D01*
X-170180D01*
Y-114300D01*
X-164710D01*
X-165483Y-112432D01*
X-166155Y-111760D01*
X-165483Y-111088D01*
X-164710Y-109220D01*
X-170180D01*
Y-106680D01*
X-164710D01*
X-165483Y-104812D01*
X-165949Y-104346D01*
X-165528Y-103330D01*
X-163998D01*
X-161962Y-102487D01*
X-160403Y-100928D01*
X-159630Y-99060D01*
D02*
G37*
G36*
X-134230Y-101600D02*
X-138430D01*
Y-105800D01*
X-136562Y-105027D01*
X-135003Y-103468D01*
X-134230Y-101600D01*
D02*
G37*
G36*
X-140970D02*
X-145170D01*
X-144397Y-103468D01*
X-142838Y-105027D01*
X-140970Y-105800D01*
Y-101600D01*
D02*
G37*
G36*
X-180340Y-102480D02*
X-182208Y-103253D01*
X-183767Y-104812D01*
X-184540Y-106680D01*
X-180340D01*
Y-102480D01*
D02*
G37*
G36*
X75779Y-105410D02*
X72390D01*
Y-108799D01*
X73833Y-108201D01*
X75181Y-106853D01*
X75779Y-105410D01*
D02*
G37*
G36*
X69850D02*
X66461D01*
X67059Y-106853D01*
X68407Y-108201D01*
X69850Y-108799D01*
Y-105410D01*
D02*
G37*
G36*
X110490Y-106680D02*
X107101D01*
X107699Y-108123D01*
X109047Y-109471D01*
X110490Y-110069D01*
Y-106680D01*
D02*
G37*
G36*
X-93590D02*
X-97790D01*
Y-110880D01*
X-95922Y-110107D01*
X-94363Y-108548D01*
X-93590Y-106680D01*
D02*
G37*
G36*
X-100330D02*
X-104530D01*
X-103757Y-108548D01*
X-102198Y-110107D01*
X-100330Y-110880D01*
Y-106680D01*
D02*
G37*
G36*
X42300D02*
X31360D01*
X32133Y-108548D01*
X33456Y-109871D01*
X33602Y-110490D01*
X33456Y-111109D01*
X32133Y-112432D01*
X31360Y-114300D01*
X42300D01*
X41527Y-112432D01*
X40203Y-111109D01*
X40058Y-110490D01*
X40203Y-109871D01*
X41527Y-108548D01*
X42300Y-106680D01*
D02*
G37*
G36*
X2540Y-110100D02*
Y-114300D01*
X6740D01*
X5967Y-112432D01*
X4408Y-110873D01*
X2540Y-110100D01*
D02*
G37*
G36*
X0D02*
X-1868Y-110873D01*
X-3427Y-112432D01*
X-4200Y-114300D01*
X0D01*
Y-110100D01*
D02*
G37*
G36*
X42300Y-116840D02*
X38100D01*
Y-121040D01*
X39968Y-120267D01*
X41527Y-118708D01*
X42300Y-116840D01*
D02*
G37*
G36*
X35560D02*
X31360D01*
X32133Y-118708D01*
X33692Y-120267D01*
X35560Y-121040D01*
Y-116840D01*
D02*
G37*
G36*
X6740D02*
X2540D01*
Y-121040D01*
X4408Y-120267D01*
X5967Y-118708D01*
X6740Y-116840D01*
D02*
G37*
G36*
X0D02*
X-4200D01*
X-3427Y-118708D01*
X-1868Y-120267D01*
X0Y-121040D01*
Y-116840D01*
D02*
G37*
G36*
X-164710D02*
X-168910D01*
Y-121040D01*
X-167042Y-120267D01*
X-165483Y-118708D01*
X-164710Y-116840D01*
D02*
G37*
G36*
X-180340D02*
X-184540D01*
X-183767Y-118708D01*
X-182208Y-120267D01*
X-180340Y-121040D01*
Y-116840D01*
D02*
G37*
G36*
X12130Y-120940D02*
X10730D01*
X9436Y-121476D01*
X8446Y-122466D01*
X7910Y-123760D01*
Y-125160D01*
X8446Y-126454D01*
X9436Y-127444D01*
X10730Y-127980D01*
X12130D01*
X13424Y-127444D01*
X14414Y-126454D01*
X14950Y-125160D01*
Y-123760D01*
X14414Y-122466D01*
X13424Y-121476D01*
X12130Y-120940D01*
D02*
G37*
G36*
X-10040Y-130911D02*
Y-134300D01*
X-6651D01*
X-7249Y-132857D01*
X-8597Y-131509D01*
X-10040Y-130911D01*
D02*
G37*
G36*
X-12580D02*
X-14023Y-131509D01*
X-15371Y-132857D01*
X-15969Y-134300D01*
X-12580D01*
Y-130911D01*
D02*
G37*
G36*
X-29790Y-130100D02*
Y-134300D01*
X-25590D01*
X-26363Y-132432D01*
X-27922Y-130873D01*
X-29790Y-130100D01*
D02*
G37*
G36*
X-32330D02*
X-34198Y-130873D01*
X-35757Y-132432D01*
X-36530Y-134300D01*
X-32330D01*
Y-130100D01*
D02*
G37*
G36*
X-49540Y-130911D02*
Y-134300D01*
X-46151D01*
X-46749Y-132857D01*
X-48097Y-131509D01*
X-49540Y-130911D01*
D02*
G37*
G36*
X-52080D02*
X-53523Y-131509D01*
X-54871Y-132857D01*
X-55469Y-134300D01*
X-52080D01*
Y-130911D01*
D02*
G37*
G36*
X-46151Y-136840D02*
X-49540D01*
Y-140229D01*
X-48097Y-139631D01*
X-46749Y-138283D01*
X-46151Y-136840D01*
D02*
G37*
G36*
X-52080D02*
X-55469D01*
X-54871Y-138283D01*
X-53523Y-139631D01*
X-52080Y-140229D01*
Y-136840D01*
D02*
G37*
G36*
X-6651D02*
X-10040D01*
Y-140229D01*
X-8597Y-139631D01*
X-7249Y-138283D01*
X-6651Y-136840D01*
D02*
G37*
G36*
X-12580D02*
X-15969D01*
X-15371Y-138283D01*
X-14023Y-139631D01*
X-12580Y-140229D01*
Y-136840D01*
D02*
G37*
G36*
X-25590D02*
X-29790D01*
Y-141040D01*
X-27922Y-140267D01*
X-26363Y-138708D01*
X-25590Y-136840D01*
D02*
G37*
G36*
X-32330D02*
X-36530D01*
X-35757Y-138708D01*
X-34198Y-140267D01*
X-32330Y-141040D01*
Y-136840D01*
D02*
G37*
G36*
X86360Y-143120D02*
Y-147320D01*
X90560D01*
X89787Y-145452D01*
X88228Y-143893D01*
X86360Y-143120D01*
D02*
G37*
G36*
X83820D02*
X81952Y-143893D01*
X80393Y-145452D01*
X79620Y-147320D01*
X83820D01*
Y-143120D01*
D02*
G37*
G36*
X-10040Y-150661D02*
Y-154050D01*
X-6651D01*
X-7249Y-152607D01*
X-8597Y-151259D01*
X-10040Y-150661D01*
D02*
G37*
G36*
X-12580D02*
X-14023Y-151259D01*
X-15371Y-152607D01*
X-15969Y-154050D01*
X-12580D01*
Y-150661D01*
D02*
G37*
G36*
X-29790D02*
Y-154050D01*
X-26401D01*
X-26999Y-152607D01*
X-28347Y-151259D01*
X-29790Y-150661D01*
D02*
G37*
G36*
X-32330D02*
X-33773Y-151259D01*
X-35121Y-152607D01*
X-35719Y-154050D01*
X-32330D01*
Y-150661D01*
D02*
G37*
G36*
X-49540D02*
Y-154050D01*
X-46151D01*
X-46749Y-152607D01*
X-48097Y-151259D01*
X-49540Y-150661D01*
D02*
G37*
G36*
X-52080D02*
X-53523Y-151259D01*
X-54871Y-152607D01*
X-55469Y-154050D01*
X-52080D01*
Y-150661D01*
D02*
G37*
G36*
X90560Y-149860D02*
X86360D01*
Y-154060D01*
X88228Y-153287D01*
X89787Y-151728D01*
X90560Y-149860D01*
D02*
G37*
G36*
X83820D02*
X79620D01*
X80393Y-151728D01*
X81952Y-153287D01*
X83820Y-154060D01*
Y-149860D01*
D02*
G37*
G36*
X-46151Y-156590D02*
X-49540D01*
Y-159979D01*
X-48097Y-159381D01*
X-46749Y-158033D01*
X-46151Y-156590D01*
D02*
G37*
G36*
X-52080D02*
X-55469D01*
X-54871Y-158033D01*
X-53523Y-159381D01*
X-52080Y-159979D01*
Y-156590D01*
D02*
G37*
G36*
X-6651D02*
X-10040D01*
Y-159979D01*
X-8597Y-159381D01*
X-7249Y-158033D01*
X-6651Y-156590D01*
D02*
G37*
G36*
X-12580D02*
X-15969D01*
X-15371Y-158033D01*
X-14023Y-159381D01*
X-12580Y-159979D01*
Y-156590D01*
D02*
G37*
G36*
X-26401D02*
X-29790D01*
Y-159979D01*
X-28347Y-159381D01*
X-26999Y-158033D01*
X-26401Y-156590D01*
D02*
G37*
G36*
X-32330D02*
X-35719D01*
X-35121Y-158033D01*
X-33773Y-159381D01*
X-32330Y-159979D01*
Y-156590D01*
D02*
G37*
G36*
X71120Y-162170D02*
X69252Y-162943D01*
X68580Y-163615D01*
X67908Y-162943D01*
X66040Y-162170D01*
Y-167640D01*
Y-173110D01*
X67908Y-172337D01*
X68580Y-171665D01*
X69252Y-172337D01*
X71120Y-173110D01*
Y-167640D01*
Y-162170D01*
D02*
G37*
G36*
X151527Y-134500D02*
X148473D01*
X145479Y-135096D01*
X142658Y-136264D01*
X140119Y-137960D01*
X137960Y-140119D01*
X136264Y-142658D01*
X135096Y-145479D01*
X134500Y-148473D01*
Y-151527D01*
X135096Y-154521D01*
X136264Y-157342D01*
X137960Y-159881D01*
X140119Y-162040D01*
X142658Y-163736D01*
X145479Y-164904D01*
X148473Y-165500D01*
X151527D01*
X154521Y-164904D01*
X157342Y-163736D01*
X159881Y-162040D01*
X162040Y-159881D01*
X163736Y-157342D01*
X164904Y-154521D01*
X165500Y-151527D01*
Y-148473D01*
X164904Y-145479D01*
X163736Y-142658D01*
X162040Y-140119D01*
X159881Y-137960D01*
X157342Y-136264D01*
X154521Y-135096D01*
X151527Y-134500D01*
D02*
G37*
G36*
X-148473D02*
X-151527D01*
X-154521Y-135096D01*
X-157342Y-136264D01*
X-159881Y-137960D01*
X-162040Y-140119D01*
X-163736Y-142658D01*
X-164904Y-145479D01*
X-165500Y-148473D01*
Y-151527D01*
X-164904Y-154521D01*
X-163736Y-157342D01*
X-162040Y-159881D01*
X-159881Y-162040D01*
X-157342Y-163736D01*
X-154521Y-164904D01*
X-151527Y-165500D01*
X-148473D01*
X-145479Y-164904D01*
X-142658Y-163736D01*
X-140119Y-162040D01*
X-137960Y-159881D01*
X-136264Y-157342D01*
X-135096Y-154521D01*
X-134500Y-151527D01*
Y-148473D01*
X-135096Y-145479D01*
X-136264Y-142658D01*
X-137960Y-140119D01*
X-140119Y-137960D01*
X-142658Y-136264D01*
X-145479Y-135096D01*
X-148473Y-134500D01*
D02*
G37*
G36*
X73660Y-162170D02*
Y-166370D01*
X77860D01*
X77087Y-164502D01*
X75528Y-162943D01*
X73660Y-162170D01*
D02*
G37*
G36*
X63500D02*
X61632Y-162943D01*
X60073Y-164502D01*
X59300Y-166370D01*
X63500D01*
Y-162170D01*
D02*
G37*
G36*
X41489Y-159560D02*
X39791D01*
X38221Y-160210D01*
X37020Y-161411D01*
X36370Y-162981D01*
Y-164679D01*
X37020Y-166249D01*
X38221Y-167450D01*
X39791Y-168100D01*
X41489D01*
X43059Y-167450D01*
X44260Y-166249D01*
X44910Y-164679D01*
Y-162981D01*
X44260Y-161411D01*
X43059Y-160210D01*
X41489Y-159560D01*
D02*
G37*
G36*
X-202392Y-166696D02*
Y-170896D01*
X-198191D01*
X-198965Y-169028D01*
X-200523Y-167469D01*
X-202392Y-166696D01*
D02*
G37*
G36*
X77860Y-168910D02*
X73660D01*
Y-173110D01*
X75528Y-172337D01*
X77087Y-170778D01*
X77860Y-168910D01*
D02*
G37*
G36*
X63500D02*
X59300D01*
X60073Y-170778D01*
X61632Y-172337D01*
X63500Y-173110D01*
Y-168910D01*
D02*
G37*
G36*
X-10040Y-170411D02*
Y-173800D01*
X-6651D01*
X-7249Y-172357D01*
X-8597Y-171009D01*
X-10040Y-170411D01*
D02*
G37*
G36*
X-12580D02*
X-14023Y-171009D01*
X-15371Y-172357D01*
X-15969Y-173800D01*
X-12580D01*
Y-170411D01*
D02*
G37*
G36*
X-29790D02*
Y-173800D01*
X-26401D01*
X-26999Y-172357D01*
X-28347Y-171009D01*
X-29790Y-170411D01*
D02*
G37*
G36*
X-32330D02*
X-33773Y-171009D01*
X-35121Y-172357D01*
X-35719Y-173800D01*
X-32330D01*
Y-170411D01*
D02*
G37*
G36*
X-49540D02*
Y-173800D01*
X-46151D01*
X-46749Y-172357D01*
X-48097Y-171009D01*
X-49540Y-170411D01*
D02*
G37*
G36*
X-52080D02*
X-53523Y-171009D01*
X-54871Y-172357D01*
X-55469Y-173800D01*
X-52080D01*
Y-170411D01*
D02*
G37*
G36*
X-179491Y-167180D02*
X-181189D01*
X-182759Y-167830D01*
X-183960Y-169031D01*
X-184610Y-170601D01*
Y-172299D01*
X-183960Y-173869D01*
X-182759Y-175070D01*
X-181189Y-175720D01*
X-179491D01*
X-177921Y-175070D01*
X-176720Y-173869D01*
X-176070Y-172299D01*
Y-170601D01*
X-176720Y-169031D01*
X-177921Y-167830D01*
X-179491Y-167180D01*
D02*
G37*
G36*
X102870Y-172330D02*
Y-176530D01*
X107070D01*
X106297Y-174662D01*
X104738Y-173103D01*
X102870Y-172330D01*
D02*
G37*
G36*
X100330D02*
X98462Y-173103D01*
X96903Y-174662D01*
X96130Y-176530D01*
X100330D01*
Y-172330D01*
D02*
G37*
G36*
X-198191Y-173436D02*
X-202392D01*
Y-177636D01*
X-200523Y-176863D01*
X-198965Y-175304D01*
X-198191Y-173436D01*
D02*
G37*
G36*
X-6651Y-176340D02*
X-10040D01*
Y-179729D01*
X-8597Y-179131D01*
X-7249Y-177783D01*
X-6651Y-176340D01*
D02*
G37*
G36*
X-12580D02*
X-15969D01*
X-15371Y-177783D01*
X-14023Y-179131D01*
X-12580Y-179729D01*
Y-176340D01*
D02*
G37*
G36*
X-26401D02*
X-29790D01*
Y-179729D01*
X-28347Y-179131D01*
X-26999Y-177783D01*
X-26401Y-176340D01*
D02*
G37*
G36*
X-32330D02*
X-35719D01*
X-35121Y-177783D01*
X-33773Y-179131D01*
X-32330Y-179729D01*
Y-176340D01*
D02*
G37*
G36*
X-46151D02*
X-49540D01*
Y-179729D01*
X-48097Y-179131D01*
X-46749Y-177783D01*
X-46151Y-176340D01*
D02*
G37*
G36*
X-52080D02*
X-55469D01*
X-54871Y-177783D01*
X-53523Y-179131D01*
X-52080Y-179729D01*
Y-176340D01*
D02*
G37*
G36*
X107070Y-179070D02*
X96130D01*
X96903Y-180938D01*
X98226Y-182261D01*
X98372Y-182880D01*
X98226Y-183499D01*
X96903Y-184822D01*
X96130Y-186690D01*
X107070D01*
X106297Y-184822D01*
X104973Y-183499D01*
X104828Y-182880D01*
X104973Y-182261D01*
X106297Y-180938D01*
X107070Y-179070D01*
D02*
G37*
G36*
X19050Y-182490D02*
Y-186690D01*
X23250D01*
X22477Y-184822D01*
X20918Y-183263D01*
X19050Y-182490D01*
D02*
G37*
G36*
X16510D02*
X14642Y-183263D01*
X13083Y-184822D01*
X12310Y-186690D01*
X16510D01*
Y-182490D01*
D02*
G37*
G36*
X23250Y-189230D02*
X12310D01*
X12687Y-190140D01*
X12366Y-190502D01*
X11867Y-190817D01*
X10160Y-190110D01*
Y-195580D01*
Y-201050D01*
X12028Y-200277D01*
X12700Y-199605D01*
X13372Y-200277D01*
X15240Y-201050D01*
Y-195580D01*
X16510D01*
Y-194310D01*
X21980D01*
X21207Y-192442D01*
X21170Y-192405D01*
X22477Y-191098D01*
X23250Y-189230D01*
D02*
G37*
G36*
X7620Y-190110D02*
X5752Y-190883D01*
X5080Y-191555D01*
X4408Y-190883D01*
X2540Y-190110D01*
Y-195580D01*
Y-201050D01*
X4408Y-200277D01*
X5080Y-199605D01*
X5752Y-200277D01*
X7620Y-201050D01*
Y-195580D01*
Y-190110D01*
D02*
G37*
G36*
X-8890D02*
X-10758Y-190883D01*
X-11430Y-191555D01*
X-12102Y-190883D01*
X-13970Y-190110D01*
Y-195580D01*
Y-201050D01*
X-12102Y-200277D01*
X-11430Y-199605D01*
X-10758Y-200277D01*
X-8890Y-201050D01*
Y-195580D01*
Y-190110D01*
D02*
G37*
G36*
X-16510D02*
X-18378Y-190883D01*
X-19050Y-191555D01*
X-19722Y-190883D01*
X-21590Y-190110D01*
Y-195580D01*
Y-201050D01*
X-19722Y-200277D01*
X-19050Y-199605D01*
X-18378Y-200277D01*
X-16510Y-201050D01*
Y-195580D01*
Y-190110D01*
D02*
G37*
G36*
X-33020D02*
X-34888Y-190883D01*
X-35560Y-191555D01*
X-36232Y-190883D01*
X-38100Y-190110D01*
Y-195580D01*
Y-201050D01*
X-36232Y-200277D01*
X-35560Y-199605D01*
X-34888Y-200277D01*
X-33020Y-201050D01*
Y-195580D01*
Y-190110D01*
D02*
G37*
G36*
X-40640D02*
X-42508Y-190883D01*
X-43180Y-191555D01*
X-43852Y-190883D01*
X-45720Y-190110D01*
Y-195580D01*
Y-201050D01*
X-43852Y-200277D01*
X-43180Y-199605D01*
X-42508Y-200277D01*
X-40640Y-201050D01*
Y-195580D01*
Y-190110D01*
D02*
G37*
G36*
X-48260D02*
X-50128Y-190883D01*
X-50800Y-191555D01*
X-51472Y-190883D01*
X-53340Y-190110D01*
Y-195580D01*
Y-201050D01*
X-51472Y-200277D01*
X-50800Y-199605D01*
X-50128Y-200277D01*
X-48260Y-201050D01*
Y-195580D01*
Y-190110D01*
D02*
G37*
G36*
X-64770D02*
X-66638Y-190883D01*
X-67310Y-191555D01*
X-67982Y-190883D01*
X-69850Y-190110D01*
Y-195580D01*
Y-201050D01*
X-67982Y-200277D01*
X-67310Y-199605D01*
X-66638Y-200277D01*
X-64770Y-201050D01*
Y-195580D01*
Y-190110D01*
D02*
G37*
G36*
X-72390D02*
X-74258Y-190883D01*
X-74930Y-191555D01*
X-75602Y-190883D01*
X-77470Y-190110D01*
Y-195580D01*
Y-201050D01*
X-75602Y-200277D01*
X-74930Y-199605D01*
X-74258Y-200277D01*
X-72390Y-201050D01*
Y-195580D01*
Y-190110D01*
D02*
G37*
G36*
X167640Y-187570D02*
Y-191770D01*
X171840D01*
X171067Y-189902D01*
X169508Y-188343D01*
X167640Y-187570D01*
D02*
G37*
G36*
X165100D02*
X163232Y-188343D01*
X161673Y-189902D01*
X160900Y-191770D01*
X165100D01*
Y-187570D01*
D02*
G37*
G36*
X0Y-190110D02*
X-1868Y-190883D01*
X-3175Y-192190D01*
X-4482Y-190883D01*
X-6350Y-190110D01*
Y-195580D01*
Y-201050D01*
X-4482Y-200277D01*
X-3175Y-198970D01*
X-1868Y-200277D01*
X0Y-201050D01*
Y-195580D01*
Y-190110D01*
D02*
G37*
G36*
X-24130D02*
X-25998Y-190883D01*
X-27305Y-192190D01*
X-28612Y-190883D01*
X-30480Y-190110D01*
Y-195580D01*
Y-201050D01*
X-28612Y-200277D01*
X-27305Y-198970D01*
X-25998Y-200277D01*
X-24130Y-201050D01*
Y-195580D01*
Y-190110D01*
D02*
G37*
G36*
X-55880D02*
X-57748Y-190883D01*
X-59055Y-192190D01*
X-60362Y-190883D01*
X-62230Y-190110D01*
Y-195580D01*
Y-201050D01*
X-60362Y-200277D01*
X-59055Y-198970D01*
X-57748Y-200277D01*
X-55880Y-201050D01*
Y-195580D01*
Y-190110D01*
D02*
G37*
G36*
X136590Y-179360D02*
X135190D01*
X133896Y-179896D01*
X132906Y-180886D01*
X132370Y-182180D01*
Y-183580D01*
X132906Y-184874D01*
X133423Y-185391D01*
X133791Y-186055D01*
X133423Y-186719D01*
X132906Y-187236D01*
X132370Y-188530D01*
Y-189930D01*
X132906Y-191224D01*
X133896Y-192214D01*
X135190Y-192750D01*
X136590D01*
X137884Y-192214D01*
X138874Y-191224D01*
X139410Y-189930D01*
Y-188530D01*
X138874Y-187236D01*
X138357Y-186719D01*
X137990Y-186055D01*
X138357Y-185391D01*
X138874Y-184874D01*
X139410Y-183580D01*
Y-182180D01*
X138874Y-180886D01*
X137884Y-179896D01*
X136590Y-179360D01*
D02*
G37*
G36*
X-80010Y-190110D02*
X-81878Y-190883D01*
X-83437Y-192442D01*
X-84210Y-194310D01*
X-80010D01*
Y-190110D01*
D02*
G37*
G36*
X107070Y-189230D02*
X96130D01*
X96903Y-191098D01*
X98226Y-192421D01*
X98372Y-193040D01*
X98226Y-193659D01*
X96903Y-194982D01*
X96130Y-196850D01*
X107070D01*
X106297Y-194982D01*
X104973Y-193659D01*
X104828Y-193040D01*
X104973Y-192421D01*
X106297Y-191098D01*
X107070Y-189230D01*
D02*
G37*
G36*
X-168910Y-193920D02*
Y-198120D01*
X-164710D01*
X-165483Y-196252D01*
X-167042Y-194693D01*
X-168910Y-193920D01*
D02*
G37*
G36*
X-171450D02*
X-173318Y-194693D01*
X-174877Y-196252D01*
X-175650Y-198120D01*
X-171450D01*
Y-193920D01*
D02*
G37*
G36*
X171840Y-194310D02*
X160900D01*
X161673Y-196178D01*
X162345Y-196850D01*
X161673Y-197522D01*
X160900Y-199390D01*
X171840D01*
X171067Y-197522D01*
X170395Y-196850D01*
X171067Y-196178D01*
X171840Y-194310D01*
D02*
G37*
G36*
X44450Y-196460D02*
Y-200660D01*
X48650D01*
X47877Y-198792D01*
X46318Y-197233D01*
X44450Y-196460D01*
D02*
G37*
G36*
X21980Y-196850D02*
X17780D01*
Y-201050D01*
X19648Y-200277D01*
X21207Y-198718D01*
X21980Y-196850D01*
D02*
G37*
G36*
X-80010D02*
X-84210D01*
X-83437Y-198718D01*
X-81878Y-200277D01*
X-80010Y-201050D01*
Y-196850D01*
D02*
G37*
G36*
X35560Y-199000D02*
X33692Y-199773D01*
X32133Y-201332D01*
X31360Y-203200D01*
X35560D01*
Y-199000D01*
D02*
G37*
G36*
X107070Y-199390D02*
X102870D01*
Y-203590D01*
X104738Y-202817D01*
X106297Y-201258D01*
X107070Y-199390D01*
D02*
G37*
G36*
X100330D02*
X96130D01*
X96903Y-201258D01*
X98462Y-202817D01*
X100330Y-203590D01*
Y-199390D01*
D02*
G37*
G36*
X-97790Y-200270D02*
Y-204470D01*
X-93590D01*
X-94363Y-202602D01*
X-95922Y-201043D01*
X-97790Y-200270D01*
D02*
G37*
G36*
X-100330D02*
X-102198Y-201043D01*
X-103757Y-202602D01*
X-104530Y-204470D01*
X-100330D01*
Y-200270D01*
D02*
G37*
G36*
X-164710Y-200660D02*
X-168910D01*
Y-204860D01*
X-167042Y-204087D01*
X-165483Y-202528D01*
X-164710Y-200660D01*
D02*
G37*
G36*
X-171450D02*
X-175650D01*
X-174877Y-202528D01*
X-173318Y-204087D01*
X-171450Y-204860D01*
Y-200660D01*
D02*
G37*
G36*
X171840Y-201930D02*
X167640D01*
Y-206130D01*
X169508Y-205357D01*
X171067Y-203798D01*
X171840Y-201930D01*
D02*
G37*
G36*
X165100D02*
X160900D01*
X161673Y-203798D01*
X163232Y-205357D01*
X165100Y-206130D01*
Y-201930D01*
D02*
G37*
G36*
X48650Y-203200D02*
X44450D01*
Y-207400D01*
X46318Y-206627D01*
X47877Y-205068D01*
X48650Y-203200D01*
D02*
G37*
%LPD*%
D103*
X-159390Y-33330D02*
D03*
Y-91130D02*
D03*
D104*
X-31060Y-135570D02*
D03*
X-180340Y-171450D02*
D03*
X40640Y-163830D02*
D03*
X-194310Y139700D02*
D03*
X54610Y-20320D02*
D03*
X64770Y-30480D02*
D03*
X59690Y-25400D02*
D03*
X125730Y-107950D02*
D03*
X120650Y-102870D02*
D03*
X115570Y-97790D02*
D03*
X134620Y-99060D02*
D03*
X129540Y-93980D02*
D03*
X124460Y-88900D02*
D03*
X154940Y40640D02*
D03*
X148590D02*
D03*
X142240D02*
D03*
X135890D02*
D03*
X129540D02*
D03*
X123190D02*
D03*
X116840D02*
D03*
X154940Y60960D02*
D03*
X148590D02*
D03*
X142240D02*
D03*
X135890D02*
D03*
X129540D02*
D03*
X123190D02*
D03*
X116840D02*
D03*
X154940Y81280D02*
D03*
X148590D02*
D03*
X142240D02*
D03*
X135890D02*
D03*
X129540D02*
D03*
X123190D02*
D03*
X116840D02*
D03*
X148590Y101600D02*
D03*
X142240D02*
D03*
X135890D02*
D03*
X129540D02*
D03*
X123190D02*
D03*
X116840D02*
D03*
X154940D02*
D03*
X45720Y-29210D02*
D03*
X50800Y-34290D02*
D03*
X-204470Y74930D02*
D03*
X-204470Y60960D02*
D03*
X-204470Y67310D02*
D03*
X129833Y-10115D02*
D03*
X111760Y13970D02*
D03*
X101600Y24130D02*
D03*
X106680Y19050D02*
D03*
X134913Y-15195D02*
D03*
X95250Y134620D02*
D03*
Y142240D02*
D03*
Y119380D02*
D03*
Y127000D02*
D03*
Y149860D02*
D03*
X87630Y156210D02*
D03*
Y111760D02*
D03*
X171450Y-49530D02*
D03*
X176530Y-54610D02*
D03*
X166370Y-44450D02*
D03*
X123190Y-45720D02*
D03*
X132080Y-66040D02*
D03*
X90453Y-43905D02*
D03*
X95841Y-49293D02*
D03*
X106617Y-60069D02*
D03*
X101229Y-54681D02*
D03*
X112006Y-65457D02*
D03*
X101229D02*
D03*
X95841Y-60069D02*
D03*
X90453Y-54681D02*
D03*
Y-65457D02*
D03*
X5080Y166370D02*
D03*
Y176530D02*
D03*
X80010Y111760D02*
D03*
Y156210D02*
D03*
X-1270Y127000D02*
D03*
X-1270Y116840D02*
D03*
Y91440D02*
D03*
Y104140D02*
D03*
X1270Y44450D02*
D03*
X-6350Y53340D02*
D03*
X-8890Y104140D02*
D03*
X85065Y-49293D02*
D03*
X80010Y-55880D02*
D03*
X85090Y-60960D02*
D03*
X80010Y-66040D02*
D03*
X74930Y-60960D02*
D03*
X106617Y-70845D02*
D03*
X101229Y-76234D02*
D03*
X95841Y-70845D02*
D03*
X85090Y-71120D02*
D03*
X95841Y-81622D02*
D03*
X90453Y-76234D02*
D03*
X101600Y-187960D02*
D03*
Y-177800D02*
D03*
X166370Y-193040D02*
D03*
Y-200660D02*
D03*
X101600Y-198120D02*
D03*
X85090Y-148590D02*
D03*
X72390Y-167640D02*
D03*
X64770D02*
D03*
X36830Y-105410D02*
D03*
Y-115570D02*
D03*
X5080Y-95250D02*
D03*
X1270Y-115570D02*
D03*
X17780Y-187960D02*
D03*
X43180Y-201930D02*
D03*
X16510Y-195580D02*
D03*
X36830Y-204470D02*
D03*
X8890Y-195580D02*
D03*
X1270D02*
D03*
X-7620D02*
D03*
X-40640Y171450D02*
D03*
X-48260D02*
D03*
X-57150D02*
D03*
X-67310Y83820D02*
D03*
X-72390Y8890D02*
D03*
X-75479Y84038D02*
D03*
X-76200Y16510D02*
D03*
X-82550D02*
D03*
X-41910Y-20320D02*
D03*
X-44450Y-7620D02*
D03*
X-48260Y-1270D02*
D03*
Y-16510D02*
D03*
X-35560Y-25400D02*
D03*
X-102870Y2540D02*
D03*
X-55880Y-26670D02*
D03*
X-72390D02*
D03*
X-64770D02*
D03*
X-167640Y54610D02*
D03*
X-152400Y38100D02*
D03*
X-165100D02*
D03*
X-171450D02*
D03*
X-158750D02*
D03*
X-109220Y24130D02*
D03*
Y17780D02*
D03*
X-111760Y2540D02*
D03*
X-123190Y31750D02*
D03*
X-129540D02*
D03*
X-116840D02*
D03*
X-148590Y13970D02*
D03*
X-121920Y-5080D02*
D03*
Y-12700D02*
D03*
X-139700Y-11430D02*
D03*
Y-3810D02*
D03*
Y-19050D02*
D03*
X-152400Y29210D02*
D03*
X-158750D02*
D03*
X-165100D02*
D03*
X-171450D02*
D03*
X-160020Y3810D02*
D03*
X-194310Y-26670D02*
D03*
X-201930D02*
D03*
X-186690D02*
D03*
X-35560Y-31750D02*
D03*
X-40640Y-64770D02*
D03*
X-31750Y-195580D02*
D03*
X-46990D02*
D03*
X-55880Y-35560D02*
D03*
Y-44450D02*
D03*
X-63500Y-64770D02*
D03*
X-64770Y-44450D02*
D03*
Y-35560D02*
D03*
X-63500Y-195580D02*
D03*
X-54610D02*
D03*
X-15240D02*
D03*
X-22860D02*
D03*
X-39370D02*
D03*
X-72390Y-44450D02*
D03*
Y-35560D02*
D03*
X-86360Y-72820D02*
D03*
X-95250Y-79170D02*
D03*
X-99060Y-105410D02*
D03*
X-138430Y-30480D02*
D03*
X-102870Y-72820D02*
D03*
X-138430Y-93980D02*
D03*
X-200660Y-97790D02*
D03*
X-165100D02*
D03*
X-139700Y-100330D02*
D03*
X-187960Y-97790D02*
D03*
X-194310D02*
D03*
X-71120Y-195580D02*
D03*
X-78740D02*
D03*
X-170180Y-107950D02*
D03*
X-179070D02*
D03*
X-170180Y-115570D02*
D03*
X-179070D02*
D03*
X-99060Y-205740D02*
D03*
X-170180Y-199390D02*
D03*
X-203662Y-172166D02*
D03*
X-194310Y95250D02*
D03*
X55880Y-39370D02*
D03*
X-63500Y-95250D02*
D03*
X-15240D02*
D03*
X-38100D02*
D03*
X-46990D02*
D03*
X-158750Y-54610D02*
D03*
Y-64770D02*
D03*
D105*
X-161585Y-83820D02*
D03*
X-160020Y-41910D02*
D03*
X135890Y-182880D02*
D03*
Y-189230D02*
D03*
X-85090Y-53340D02*
D03*
Y-58420D02*
D03*
X114300Y-38100D02*
D03*
X-11310Y-175070D02*
D03*
X-31060D02*
D03*
X-50810D02*
D03*
Y-155320D02*
D03*
X-31060D02*
D03*
X-11310D02*
D03*
Y-135570D02*
D03*
X-50810D02*
D03*
X64770Y-19050D02*
D03*
X63500Y-38100D02*
D03*
X55880Y-46990D02*
D03*
X52070Y-50800D02*
D03*
X139700Y-93980D02*
D03*
X118110Y-91440D02*
D03*
X121920Y-95250D02*
D03*
X109220Y-100330D02*
D03*
X111760Y-105410D02*
D03*
X71120Y-104140D02*
D03*
X-73660Y36830D02*
D03*
X-179070Y46990D02*
D03*
X-173990Y15240D02*
D03*
X11430Y-124460D02*
D03*
M02*
